<svg id="visual" viewBox="0 0 900 600" width="900" height="600" xmlns="http://www.w3.org/2000/svg" xmlns:xlink="http://www.w3.org/1999/xlink" version="1.1"><g stroke-width="1" stroke-linejoin="bevel"><path d="M435 332L392 387L443 382Z" fill="#112e42" stroke="#112e42"></path><path d="M435 332L361 379L392 387Z" fill="#277297" stroke="#277297"></path><path d="M381 427L426 427L392 387Z" fill="#081a28" stroke="#081a28"></path><path d="M392 387L426 427L443 382Z" fill="#15384f" stroke="#15384f"></path><path d="M426 427L479 386L443 382Z" fill="#297ea6" stroke="#297ea6"></path><path d="M443 382L479 386L435 332Z" fill="#297ea6" stroke="#297ea6"></path><path d="M361 379L381 427L392 387Z" fill="#246688" stroke="#246688"></path><path d="M435 332L382 291L361 379Z" fill="#19435d" stroke="#19435d"></path><path d="M496 475L511 384L479 386Z" fill="#0c2435" stroke="#0c2435"></path><path d="M479 386L511 288L435 332Z" fill="#19435d" stroke="#19435d"></path><path d="M435 332L461 248L382 291Z" fill="#15384f" stroke="#15384f"></path><path d="M324 285L319 384L361 379Z" fill="#112e42" stroke="#112e42"></path><path d="M361 379L319 384L381 427Z" fill="#246688" stroke="#246688"></path><path d="M381 427L411 469L426 427Z" fill="#00101c" stroke="#00101c"></path><path d="M426 427L496 475L479 386Z" fill="#15384f" stroke="#15384f"></path><path d="M395 514L411 469L381 427Z" fill="#297ea6" stroke="#297ea6"></path><path d="M382 291L324 285L361 379Z" fill="#112e42" stroke="#112e42"></path><path d="M511 384L511 288L479 386Z" fill="#081a28" stroke="#081a28"></path><path d="M382 291L347 227L324 285Z" fill="#15384f" stroke="#15384f"></path><path d="M511 288L461 248L435 332Z" fill="#112e42" stroke="#112e42"></path><path d="M511 384L537 296L511 288Z" fill="#277297" stroke="#277297"></path><path d="M511 288L549 250L461 248Z" fill="#00101c" stroke="#00101c"></path><path d="M411 469L496 475L426 427Z" fill="#246688" stroke="#246688"></path><path d="M511 384L574 324L537 296Z" fill="#1d4e6b" stroke="#1d4e6b"></path><path d="M412 203L347 227L382 291Z" fill="#00101c" stroke="#00101c"></path><path d="M208 298L265 357L324 285Z" fill="#205a7a" stroke="#205a7a"></path><path d="M324 285L265 357L319 384Z" fill="#081a28" stroke="#081a28"></path><path d="M265 456L395 514L381 427Z" fill="#277297" stroke="#277297"></path><path d="M391 532L395 514L333 551Z" fill="#19435d" stroke="#19435d"></path><path d="M411 469L463 536L496 475Z" fill="#297ea6" stroke="#297ea6"></path><path d="M398 152L412 203L417 145Z" fill="#297ea6" stroke="#297ea6"></path><path d="M461 248L412 203L382 291Z" fill="#246688" stroke="#246688"></path><path d="M598 354L574 324L511 384Z" fill="#297ea6" stroke="#297ea6"></path><path d="M412 203L370 202L347 227Z" fill="#297ea6" stroke="#297ea6"></path><path d="M265 456L381 427L319 384Z" fill="#15384f" stroke="#15384f"></path><path d="M395 514L463 536L411 469Z" fill="#00101c" stroke="#00101c"></path><path d="M600 314L549 250L537 296Z" fill="#0c2435" stroke="#0c2435"></path><path d="M537 296L549 250L511 288Z" fill="#00101c" stroke="#00101c"></path><path d="M265 357L265 456L319 384Z" fill="#205a7a" stroke="#205a7a"></path><path d="M370 202L313 215L347 227Z" fill="#0c2435" stroke="#0c2435"></path><path d="M347 227L313 215L324 285Z" fill="#1d4e6b" stroke="#1d4e6b"></path><path d="M391 532L463 536L395 514Z" fill="#205a7a" stroke="#205a7a"></path><path d="M633 406L598 354L511 384Z" fill="#297ea6" stroke="#297ea6"></path><path d="M574 324L600 314L537 296Z" fill="#0c2435" stroke="#0c2435"></path><path d="M568 484L511 384L496 475Z" fill="#15384f" stroke="#15384f"></path><path d="M265 357L257 459L265 456Z" fill="#112e42" stroke="#112e42"></path><path d="M265 456L333 551L395 514Z" fill="#112e42" stroke="#112e42"></path><path d="M313 215L276 237L324 285Z" fill="#0c2435" stroke="#0c2435"></path><path d="M208 298L228 349L265 357Z" fill="#112e42" stroke="#112e42"></path><path d="M265 357L228 349L257 459Z" fill="#0c2435" stroke="#0c2435"></path><path d="M463 536L518 518L496 475Z" fill="#246688" stroke="#246688"></path><path d="M598 354L600 314L574 324Z" fill="#15384f" stroke="#15384f"></path><path d="M518 518L568 484L496 475Z" fill="#0c2435" stroke="#0c2435"></path><path d="M257 459L333 551L265 456Z" fill="#277297" stroke="#277297"></path><path d="M391 532L429 578L463 536Z" fill="#19435d" stroke="#19435d"></path><path d="M417 145L412 203L505 150Z" fill="#1d4e6b" stroke="#1d4e6b"></path><path d="M412 203L398 152L370 202Z" fill="#205a7a" stroke="#205a7a"></path><path d="M370 202L285 175L313 215Z" fill="#081a28" stroke="#081a28"></path><path d="M285 175L248 212L276 237Z" fill="#00101c" stroke="#00101c"></path><path d="M505 150L412 203L461 248Z" fill="#277297" stroke="#277297"></path><path d="M276 237L208 298L324 285Z" fill="#246688" stroke="#246688"></path><path d="M228 349L164 396L257 459Z" fill="#081a28" stroke="#081a28"></path><path d="M336 600L429 578L391 532Z" fill="#19435d" stroke="#19435d"></path><path d="M531 600L567 543L518 518Z" fill="#297ea6" stroke="#297ea6"></path><path d="M568 484L633 406L511 384Z" fill="#00101c" stroke="#00101c"></path><path d="M661 325L624 279L600 314Z" fill="#246688" stroke="#246688"></path><path d="M285 175L276 237L313 215Z" fill="#0c2435" stroke="#0c2435"></path><path d="M276 237L248 212L208 298Z" fill="#112e42" stroke="#112e42"></path><path d="M661 325L600 314L598 354Z" fill="#277297" stroke="#277297"></path><path d="M600 314L624 279L549 250Z" fill="#277297" stroke="#277297"></path><path d="M549 250L505 150L461 248Z" fill="#081a28" stroke="#081a28"></path><path d="M365 105L370 202L398 152Z" fill="#277297" stroke="#277297"></path><path d="M298 126L285 175L370 202Z" fill="#112e42" stroke="#112e42"></path><path d="M624 279L568 192L549 250Z" fill="#246688" stroke="#246688"></path><path d="M568 192L505 150L549 250Z" fill="#0c2435" stroke="#0c2435"></path><path d="M567 543L588 513L568 484Z" fill="#00101c" stroke="#00101c"></path><path d="M568 484L628 449L633 406Z" fill="#112e42" stroke="#112e42"></path><path d="M567 543L568 484L518 518Z" fill="#081a28" stroke="#081a28"></path><path d="M588 513L628 449L568 484Z" fill="#15384f" stroke="#15384f"></path><path d="M476 600L518 518L463 536Z" fill="#1d4e6b" stroke="#1d4e6b"></path><path d="M336 600L439 600L429 578Z" fill="#0c2435" stroke="#0c2435"></path><path d="M429 578L476 600L463 536Z" fill="#15384f" stroke="#15384f"></path><path d="M178 270L176 336L208 298Z" fill="#0c2435" stroke="#0c2435"></path><path d="M208 298L176 336L228 349Z" fill="#0c2435" stroke="#0c2435"></path><path d="M628 449L656 408L633 406Z" fill="#246688" stroke="#246688"></path><path d="M633 406L661 325L598 354Z" fill="#246688" stroke="#246688"></path><path d="M687 416L656 408L695 455Z" fill="#205a7a" stroke="#205a7a"></path><path d="M439 600L476 600L429 578Z" fill="#081a28" stroke="#081a28"></path><path d="M680 387L661 325L633 406Z" fill="#19435d" stroke="#19435d"></path><path d="M643 104L569 141L682 140Z" fill="#277297" stroke="#277297"></path><path d="M295 600L336 600L333 551Z" fill="#246688" stroke="#246688"></path><path d="M333 551L336 600L391 532Z" fill="#0c2435" stroke="#0c2435"></path><path d="M209 530L333 551L257 459Z" fill="#246688" stroke="#246688"></path><path d="M176 336L164 396L228 349Z" fill="#1d4e6b" stroke="#1d4e6b"></path><path d="M248 212L178 270L208 298Z" fill="#15384f" stroke="#15384f"></path><path d="M176 336L130 330L164 396Z" fill="#00101c" stroke="#00101c"></path><path d="M174 243L178 270L248 212Z" fill="#246688" stroke="#246688"></path><path d="M171 446L202 503L257 459Z" fill="#19435d" stroke="#19435d"></path><path d="M164 396L171 446L257 459Z" fill="#205a7a" stroke="#205a7a"></path><path d="M567 543L628 511L588 513Z" fill="#205a7a" stroke="#205a7a"></path><path d="M588 513L628 511L628 449Z" fill="#297ea6" stroke="#297ea6"></path><path d="M613 600L628 511L567 543Z" fill="#297ea6" stroke="#297ea6"></path><path d="M417 145L365 105L398 152Z" fill="#0c2435" stroke="#0c2435"></path><path d="M435 98L365 105L417 145Z" fill="#297ea6" stroke="#297ea6"></path><path d="M365 105L298 126L370 202Z" fill="#0c2435" stroke="#0c2435"></path><path d="M285 175L212 134L248 212Z" fill="#00101c" stroke="#00101c"></path><path d="M472 98L417 145L505 150Z" fill="#0c2435" stroke="#0c2435"></path><path d="M472 98L435 98L417 145Z" fill="#297ea6" stroke="#297ea6"></path><path d="M476 600L531 600L518 518Z" fill="#112e42" stroke="#112e42"></path><path d="M687 416L680 387L656 408Z" fill="#00101c" stroke="#00101c"></path><path d="M656 408L680 387L633 406Z" fill="#00101c" stroke="#00101c"></path><path d="M207 539L209 530L202 503Z" fill="#19435d" stroke="#19435d"></path><path d="M202 503L209 530L257 459Z" fill="#246688" stroke="#246688"></path><path d="M209 530L295 600L333 551Z" fill="#297ea6" stroke="#297ea6"></path><path d="M660 227L568 192L624 279Z" fill="#1d4e6b" stroke="#1d4e6b"></path><path d="M568 192L569 141L505 150Z" fill="#15384f" stroke="#15384f"></path><path d="M157 223L174 243L169 178Z" fill="#00101c" stroke="#00101c"></path><path d="M178 270L130 330L176 336Z" fill="#297ea6" stroke="#297ea6"></path><path d="M479 81L472 98L525 91Z" fill="#297ea6" stroke="#297ea6"></path><path d="M114 507L207 539L202 503Z" fill="#112e42" stroke="#112e42"></path><path d="M209 530L207 539L295 600Z" fill="#297ea6" stroke="#297ea6"></path><path d="M695 455L656 408L628 449Z" fill="#297ea6" stroke="#297ea6"></path><path d="M680 387L692 341L661 325Z" fill="#19435d" stroke="#19435d"></path><path d="M661 325L660 227L624 279Z" fill="#15384f" stroke="#15384f"></path><path d="M809 385L692 341L680 387Z" fill="#277297" stroke="#277297"></path><path d="M731 302L660 227L661 325Z" fill="#246688" stroke="#246688"></path><path d="M643 104L574 127L569 141Z" fill="#1d4e6b" stroke="#1d4e6b"></path><path d="M569 141L525 91L505 150Z" fill="#1d4e6b" stroke="#1d4e6b"></path><path d="M85 291L130 330L178 270Z" fill="#297ea6" stroke="#297ea6"></path><path d="M164 396L93 410L171 446Z" fill="#112e42" stroke="#112e42"></path><path d="M525 91L472 98L505 150Z" fill="#205a7a" stroke="#205a7a"></path><path d="M472 98L479 81L435 98Z" fill="#15384f" stroke="#15384f"></path><path d="M435 98L366 49L365 105Z" fill="#19435d" stroke="#19435d"></path><path d="M574 127L525 91L569 141Z" fill="#277297" stroke="#277297"></path><path d="M169 178L174 243L248 212Z" fill="#19435d" stroke="#19435d"></path><path d="M174 243L157 223L178 270Z" fill="#246688" stroke="#246688"></path><path d="M628 511L695 455L628 449Z" fill="#277297" stroke="#277297"></path><path d="M781 306L731 302L809 385Z" fill="#205a7a" stroke="#205a7a"></path><path d="M687 538L695 455L628 511Z" fill="#1d4e6b" stroke="#1d4e6b"></path><path d="M298 126L212 134L285 175Z" fill="#15384f" stroke="#15384f"></path><path d="M202 92L212 134L298 126Z" fill="#297ea6" stroke="#297ea6"></path><path d="M309 41L298 126L365 105Z" fill="#081a28" stroke="#081a28"></path><path d="M212 134L169 178L248 212Z" fill="#205a7a" stroke="#205a7a"></path><path d="M531 600L613 600L567 543Z" fill="#081a28" stroke="#081a28"></path><path d="M406 0L435 98L479 81Z" fill="#112e42" stroke="#112e42"></path><path d="M406 0L366 49L435 98Z" fill="#00101c" stroke="#00101c"></path><path d="M574 127L583 88L525 91Z" fill="#112e42" stroke="#112e42"></path><path d="M497 0L406 0L479 81Z" fill="#081a28" stroke="#081a28"></path><path d="M643 104L586 94L574 127Z" fill="#1d4e6b" stroke="#1d4e6b"></path><path d="M141 600L207 600L207 539Z" fill="#0c2435" stroke="#0c2435"></path><path d="M207 539L207 600L295 600Z" fill="#297ea6" stroke="#297ea6"></path><path d="M114 507L202 503L171 446Z" fill="#205a7a" stroke="#205a7a"></path><path d="M613 600L628 600L628 511Z" fill="#19435d" stroke="#19435d"></path><path d="M643 104L583 88L586 94Z" fill="#205a7a" stroke="#205a7a"></path><path d="M586 94L583 88L574 127Z" fill="#1d4e6b" stroke="#1d4e6b"></path><path d="M731 302L692 341L809 385Z" fill="#081a28" stroke="#081a28"></path><path d="M692 341L731 302L661 325Z" fill="#277297" stroke="#277297"></path><path d="M682 140L569 141L568 192Z" fill="#19435d" stroke="#19435d"></path><path d="M628 600L687 538L628 511Z" fill="#297ea6" stroke="#297ea6"></path><path d="M809 385L680 387L687 416Z" fill="#246688" stroke="#246688"></path><path d="M48 401L93 410L38 374Z" fill="#19435d" stroke="#19435d"></path><path d="M130 330L93 410L164 396Z" fill="#15384f" stroke="#15384f"></path><path d="M85 291L178 270L157 223Z" fill="#112e42" stroke="#112e42"></path><path d="M93 410L114 507L171 446Z" fill="#246688" stroke="#246688"></path><path d="M366 49L309 41L365 105Z" fill="#00101c" stroke="#00101c"></path><path d="M96 216L85 291L157 223Z" fill="#19435d" stroke="#19435d"></path><path d="M212 134L139 95L169 178Z" fill="#246688" stroke="#246688"></path><path d="M169 178L96 216L157 223Z" fill="#081a28" stroke="#081a28"></path><path d="M235 30L202 92L298 126Z" fill="#081a28" stroke="#081a28"></path><path d="M682 140L568 192L660 227Z" fill="#0c2435" stroke="#0c2435"></path><path d="M747 195L682 140L660 227Z" fill="#112e42" stroke="#112e42"></path><path d="M94 158L96 216L169 178Z" fill="#1d4e6b" stroke="#1d4e6b"></path><path d="M42 269L63 292L85 291Z" fill="#246688" stroke="#246688"></path><path d="M85 291L38 374L130 330Z" fill="#112e42" stroke="#112e42"></path><path d="M93 410L53 447L114 507Z" fill="#205a7a" stroke="#205a7a"></path><path d="M497 0L479 81L525 91Z" fill="#1d4e6b" stroke="#1d4e6b"></path><path d="M366 49L341 0L309 41Z" fill="#0c2435" stroke="#0c2435"></path><path d="M497 0L525 91L530 0Z" fill="#1d4e6b" stroke="#1d4e6b"></path><path d="M781 306L751 221L731 302Z" fill="#19435d" stroke="#19435d"></path><path d="M731 302L751 221L660 227Z" fill="#1d4e6b" stroke="#1d4e6b"></path><path d="M112 579L141 600L207 539Z" fill="#112e42" stroke="#112e42"></path><path d="M751 221L750 206L660 227Z" fill="#15384f" stroke="#15384f"></path><path d="M406 0L341 0L366 49Z" fill="#15384f" stroke="#15384f"></path><path d="M309 41L235 30L298 126Z" fill="#0c2435" stroke="#0c2435"></path><path d="M752 215L750 206L751 221Z" fill="#0c2435" stroke="#0c2435"></path><path d="M38 374L93 410L130 330Z" fill="#112e42" stroke="#112e42"></path><path d="M114 507L112 579L207 539Z" fill="#1d4e6b" stroke="#1d4e6b"></path><path d="M809 385L687 416L819 422Z" fill="#15384f" stroke="#15384f"></path><path d="M817 166L750 206L752 215Z" fill="#246688" stroke="#246688"></path><path d="M817 166L807 159L750 206Z" fill="#297ea6" stroke="#297ea6"></path><path d="M530 0L525 91L583 88Z" fill="#297ea6" stroke="#297ea6"></path><path d="M682 140L726 84L643 104Z" fill="#205a7a" stroke="#205a7a"></path><path d="M750 206L747 195L660 227Z" fill="#205a7a" stroke="#205a7a"></path><path d="M807 159L747 195L750 206Z" fill="#277297" stroke="#277297"></path><path d="M48 401L53 447L93 410Z" fill="#0c2435" stroke="#0c2435"></path><path d="M53 447L73 508L114 507Z" fill="#205a7a" stroke="#205a7a"></path><path d="M73 508L112 579L114 507Z" fill="#15384f" stroke="#15384f"></path><path d="M271 0L235 30L309 41Z" fill="#277297" stroke="#277297"></path><path d="M139 95L94 158L169 178Z" fill="#15384f" stroke="#15384f"></path><path d="M48 401L0 403L53 447Z" fill="#277297" stroke="#277297"></path><path d="M63 292L38 374L85 291Z" fill="#277297" stroke="#277297"></path><path d="M632 0L530 0L583 88Z" fill="#112e42" stroke="#112e42"></path><path d="M632 0L583 88L643 104Z" fill="#277297" stroke="#277297"></path><path d="M139 95L212 134L202 92Z" fill="#1d4e6b" stroke="#1d4e6b"></path><path d="M96 216L42 269L85 291Z" fill="#19435d" stroke="#19435d"></path><path d="M63 292L0 366L38 374Z" fill="#246688" stroke="#246688"></path><path d="M722 600L743 558L687 538Z" fill="#297ea6" stroke="#297ea6"></path><path d="M687 538L743 558L695 455Z" fill="#15384f" stroke="#15384f"></path><path d="M214 25L139 95L202 92Z" fill="#277297" stroke="#277297"></path><path d="M45 199L42 269L96 216Z" fill="#1d4e6b" stroke="#1d4e6b"></path><path d="M341 0L271 0L309 41Z" fill="#00101c" stroke="#00101c"></path><path d="M235 30L214 25L202 92Z" fill="#081a28" stroke="#081a28"></path><path d="M628 600L722 600L687 538Z" fill="#277297" stroke="#277297"></path><path d="M229 0L214 25L235 30Z" fill="#277297" stroke="#277297"></path><path d="M819 422L687 416L695 455Z" fill="#00101c" stroke="#00101c"></path><path d="M817 166L752 215L859 222Z" fill="#081a28" stroke="#081a28"></path><path d="M809 385L814 337L781 306Z" fill="#246688" stroke="#246688"></path><path d="M743 558L796 488L695 455Z" fill="#297ea6" stroke="#297ea6"></path><path d="M818 537L796 488L743 558Z" fill="#297ea6" stroke="#297ea6"></path><path d="M87 600L112 579L73 508Z" fill="#1d4e6b" stroke="#1d4e6b"></path><path d="M87 600L92 600L112 579Z" fill="#15384f" stroke="#15384f"></path><path d="M112 579L92 600L141 600Z" fill="#00101c" stroke="#00101c"></path><path d="M0 154L45 199L94 158Z" fill="#246688" stroke="#246688"></path><path d="M94 158L45 199L96 216Z" fill="#00101c" stroke="#00101c"></path><path d="M271 0L229 0L235 30Z" fill="#112e42" stroke="#112e42"></path><path d="M76 42L76 86L139 95Z" fill="#112e42" stroke="#112e42"></path><path d="M0 600L87 600L73 508Z" fill="#205a7a" stroke="#205a7a"></path><path d="M796 488L819 422L695 455Z" fill="#00101c" stroke="#00101c"></path><path d="M809 385L839 330L814 337Z" fill="#15384f" stroke="#15384f"></path><path d="M858 493L825 413L819 422Z" fill="#297ea6" stroke="#297ea6"></path><path d="M819 422L825 413L809 385Z" fill="#0c2435" stroke="#0c2435"></path><path d="M722 600L753 600L743 558Z" fill="#277297" stroke="#277297"></path><path d="M796 488L858 493L819 422Z" fill="#1d4e6b" stroke="#1d4e6b"></path><path d="M38 374L0 403L48 401Z" fill="#15384f" stroke="#15384f"></path><path d="M53 447L0 462L73 508Z" fill="#0c2435" stroke="#0c2435"></path><path d="M0 267L0 366L63 292Z" fill="#0c2435" stroke="#0c2435"></path><path d="M0 267L63 292L42 269Z" fill="#00101c" stroke="#00101c"></path><path d="M807 159L726 84L747 195Z" fill="#246688" stroke="#246688"></path><path d="M747 195L726 84L682 140Z" fill="#112e42" stroke="#112e42"></path><path d="M0 366L0 403L38 374Z" fill="#205a7a" stroke="#205a7a"></path><path d="M679 24L632 0L643 104Z" fill="#297ea6" stroke="#297ea6"></path><path d="M900 384L839 330L809 385Z" fill="#15384f" stroke="#15384f"></path><path d="M814 337L839 330L781 306Z" fill="#297ea6" stroke="#297ea6"></path><path d="M0 227L0 267L42 269Z" fill="#112e42" stroke="#112e42"></path><path d="M0 403L0 462L53 447Z" fill="#205a7a" stroke="#205a7a"></path><path d="M726 84L679 24L643 104Z" fill="#297ea6" stroke="#297ea6"></path><path d="M45 199L0 227L42 269Z" fill="#205a7a" stroke="#205a7a"></path><path d="M0 154L0 227L45 199Z" fill="#246688" stroke="#246688"></path><path d="M76 86L94 158L139 95Z" fill="#246688" stroke="#246688"></path><path d="M154 0L139 95L214 25Z" fill="#277297" stroke="#277297"></path><path d="M753 600L818 537L743 558Z" fill="#205a7a" stroke="#205a7a"></path><path d="M825 413L900 384L809 385Z" fill="#277297" stroke="#277297"></path><path d="M752 215L751 221L859 222Z" fill="#0c2435" stroke="#0c2435"></path><path d="M726 84L746 65L679 24Z" fill="#246688" stroke="#246688"></path><path d="M0 462L0 517L73 508Z" fill="#297ea6" stroke="#297ea6"></path><path d="M808 113L746 65L726 84Z" fill="#246688" stroke="#246688"></path><path d="M229 0L154 0L214 25Z" fill="#19435d" stroke="#19435d"></path><path d="M859 222L751 221L781 306Z" fill="#246688" stroke="#246688"></path><path d="M807 159L808 113L726 84Z" fill="#1d4e6b" stroke="#1d4e6b"></path><path d="M715 0L696 0L679 24Z" fill="#297ea6" stroke="#297ea6"></path><path d="M679 24L696 0L632 0Z" fill="#0c2435" stroke="#0c2435"></path><path d="M818 537L858 493L796 488Z" fill="#0c2435" stroke="#0c2435"></path><path d="M0 89L0 154L76 86Z" fill="#19435d" stroke="#19435d"></path><path d="M76 86L0 154L94 158Z" fill="#246688" stroke="#246688"></path><path d="M817 166L808 113L807 159Z" fill="#246688" stroke="#246688"></path><path d="M746 65L715 0L679 24Z" fill="#19435d" stroke="#19435d"></path><path d="M900 267L859 222L839 330Z" fill="#00101c" stroke="#00101c"></path><path d="M839 330L859 222L781 306Z" fill="#297ea6" stroke="#297ea6"></path><path d="M817 166L900 170L808 113Z" fill="#081a28" stroke="#081a28"></path><path d="M112 0L76 42L139 95Z" fill="#297ea6" stroke="#297ea6"></path><path d="M783 0L715 0L746 65Z" fill="#112e42" stroke="#112e42"></path><path d="M154 0L112 0L139 95Z" fill="#205a7a" stroke="#205a7a"></path><path d="M807 29L785 60L808 113Z" fill="#1d4e6b" stroke="#1d4e6b"></path><path d="M808 113L785 60L746 65Z" fill="#15384f" stroke="#15384f"></path><path d="M0 517L0 600L73 508Z" fill="#00101c" stroke="#00101c"></path><path d="M858 493L900 384L825 413Z" fill="#112e42" stroke="#112e42"></path><path d="M753 600L838 600L818 537Z" fill="#297ea6" stroke="#297ea6"></path><path d="M900 544L900 517L858 493Z" fill="#205a7a" stroke="#205a7a"></path><path d="M858 493L900 517L900 384Z" fill="#277297" stroke="#277297"></path><path d="M900 384L900 330L839 330Z" fill="#081a28" stroke="#081a28"></path><path d="M900 330L900 323L839 330Z" fill="#205a7a" stroke="#205a7a"></path><path d="M900 323L900 267L839 330Z" fill="#15384f" stroke="#15384f"></path><path d="M900 90L807 29L808 113Z" fill="#297ea6" stroke="#297ea6"></path><path d="M0 72L76 86L76 42Z" fill="#0c2435" stroke="#0c2435"></path><path d="M0 72L0 89L76 86Z" fill="#0c2435" stroke="#0c2435"></path><path d="M24 0L0 72L76 42Z" fill="#246688" stroke="#246688"></path><path d="M900 544L858 493L818 537Z" fill="#246688" stroke="#246688"></path><path d="M900 170L817 166L859 222Z" fill="#246688" stroke="#246688"></path><path d="M785 60L783 0L746 65Z" fill="#246688" stroke="#246688"></path><path d="M807 29L783 0L785 60Z" fill="#15384f" stroke="#15384f"></path><path d="M838 600L900 544L818 537Z" fill="#19435d" stroke="#19435d"></path><path d="M900 267L900 170L859 222Z" fill="#15384f" stroke="#15384f"></path><path d="M112 0L24 0L76 42Z" fill="#1d4e6b" stroke="#1d4e6b"></path><path d="M838 600L900 600L900 544Z" fill="#00101c" stroke="#00101c"></path><path d="M24 0L0 0L0 72Z" fill="#0c2435" stroke="#0c2435"></path><path d="M900 170L900 90L808 113Z" fill="#277297" stroke="#277297"></path><path d="M807 29L859 0L783 0Z" fill="#205a7a" stroke="#205a7a"></path><path d="M900 47L859 0L807 29Z" fill="#15384f" stroke="#15384f"></path><path d="M900 90L900 47L807 29Z" fill="#112e42" stroke="#112e42"></path><path d="M900 47L900 0L859 0Z" fill="#081a28" stroke="#081a28"></path></g></svg>