<svg id="visual" viewBox="0 0 900 600" width="900" height="600" xmlns="http://www.w3.org/2000/svg" xmlns:xlink="http://www.w3.org/1999/xlink" version="1.1"><g stroke-width="1" stroke-linejoin="bevel"><path d="M486 328L384 316L480 392Z" fill="#dddddd" stroke="#dddddd"></path><path d="M384 316L364 424L480 392Z" fill="#e0e0e0" stroke="#e0e0e0"></path><path d="M303 338L334 424L364 424Z" fill="#e0e0e0" stroke="#e0e0e0"></path><path d="M308 472L404 476L364 424Z" fill="#ebebeb" stroke="#ebebeb"></path><path d="M364 424L404 476L480 392Z" fill="#d6d6d6" stroke="#d6d6d6"></path><path d="M384 316L303 338L364 424Z" fill="#dadada" stroke="#dadada"></path><path d="M516 532L552 428L480 392Z" fill="#dddddd" stroke="#dddddd"></path><path d="M480 392L552 428L486 328Z" fill="#eeeeee" stroke="#eeeeee"></path><path d="M552 428L583 316L486 328Z" fill="#d3d3d3" stroke="#d3d3d3"></path><path d="M486 328L426 182L384 316Z" fill="#eeeeee" stroke="#eeeeee"></path><path d="M334 424L308 472L364 424Z" fill="#ebebeb" stroke="#ebebeb"></path><path d="M184 381L308 472L334 424Z" fill="#cfcfcf" stroke="#cfcfcf"></path><path d="M462 166L426 182L486 328Z" fill="#eeeeee" stroke="#eeeeee"></path><path d="M384 316L319 213L303 338Z" fill="#d3d3d3" stroke="#d3d3d3"></path><path d="M426 182L319 213L384 316Z" fill="#cccccc" stroke="#cccccc"></path><path d="M595 222L462 166L486 328Z" fill="#d6d6d6" stroke="#d6d6d6"></path><path d="M426 182L338 88L319 213Z" fill="#eeeeee" stroke="#eeeeee"></path><path d="M474 600L516 532L404 476Z" fill="#d3d3d3" stroke="#d3d3d3"></path><path d="M404 476L516 532L480 392Z" fill="#e0e0e0" stroke="#e0e0e0"></path><path d="M583 316L595 222L486 328Z" fill="#cfcfcf" stroke="#cfcfcf"></path><path d="M516 532L633 475L552 428Z" fill="#eeeeee" stroke="#eeeeee"></path><path d="M552 428L633 475L583 316Z" fill="#dadada" stroke="#dadada"></path><path d="M691 289L651 215L595 222Z" fill="#cfcfcf" stroke="#cfcfcf"></path><path d="M308 472L407 600L404 476Z" fill="#e0e0e0" stroke="#e0e0e0"></path><path d="M516 532L624 600L633 475Z" fill="#e4e4e4" stroke="#e4e4e4"></path><path d="M191 257L184 381L303 338Z" fill="#d3d3d3" stroke="#d3d3d3"></path><path d="M303 338L184 381L334 424Z" fill="#dddddd" stroke="#dddddd"></path><path d="M308 472L278 600L407 600Z" fill="#e0e0e0" stroke="#e0e0e0"></path><path d="M407 600L474 600L404 476Z" fill="#d3d3d3" stroke="#d3d3d3"></path><path d="M319 213L191 257L303 338Z" fill="#cfcfcf" stroke="#cfcfcf"></path><path d="M691 289L595 222L583 316Z" fill="#d3d3d3" stroke="#d3d3d3"></path><path d="M523 49L434 93L462 166Z" fill="#dadada" stroke="#dadada"></path><path d="M523 49L462 166L595 222Z" fill="#e4e4e4" stroke="#e4e4e4"></path><path d="M462 166L434 93L426 182Z" fill="#cfcfcf" stroke="#cfcfcf"></path><path d="M319 213L164 180L191 257Z" fill="#dddddd" stroke="#dddddd"></path><path d="M713 415L691 289L583 316Z" fill="#dddddd" stroke="#dddddd"></path><path d="M184 381L231 543L308 472Z" fill="#e0e0e0" stroke="#e0e0e0"></path><path d="M434 93L338 88L426 182Z" fill="#cccccc" stroke="#cccccc"></path><path d="M633 475L713 415L583 316Z" fill="#dadada" stroke="#dadada"></path><path d="M743 481L713 415L633 475Z" fill="#e0e0e0" stroke="#e0e0e0"></path><path d="M231 543L278 600L308 472Z" fill="#cccccc" stroke="#cccccc"></path><path d="M474 600L624 600L516 532Z" fill="#e0e0e0" stroke="#e0e0e0"></path><path d="M810 238L645 124L651 215Z" fill="#cccccc" stroke="#cccccc"></path><path d="M651 215L645 124L595 222Z" fill="#dadada" stroke="#dadada"></path><path d="M172 138L164 180L319 213Z" fill="#cfcfcf" stroke="#cfcfcf"></path><path d="M51 294L49 395L184 381Z" fill="#d3d3d3" stroke="#d3d3d3"></path><path d="M645 124L523 49L595 222Z" fill="#cfcfcf" stroke="#cfcfcf"></path><path d="M434 93L368 0L338 88Z" fill="#cfcfcf" stroke="#cfcfcf"></path><path d="M49 395L133 480L184 381Z" fill="#cccccc" stroke="#cccccc"></path><path d="M184 381L133 480L231 543Z" fill="#d3d3d3" stroke="#d3d3d3"></path><path d="M231 543L187 600L278 600Z" fill="#d3d3d3" stroke="#d3d3d3"></path><path d="M677 600L743 481L633 475Z" fill="#e4e4e4" stroke="#e4e4e4"></path><path d="M828 279L810 238L691 289Z" fill="#d6d6d6" stroke="#d6d6d6"></path><path d="M338 88L172 138L319 213Z" fill="#dadada" stroke="#dadada"></path><path d="M133 480L187 600L231 543Z" fill="#d3d3d3" stroke="#d3d3d3"></path><path d="M624 600L677 600L633 475Z" fill="#cfcfcf" stroke="#cfcfcf"></path><path d="M517 0L368 0L434 93Z" fill="#cccccc" stroke="#cccccc"></path><path d="M338 88L251 0L172 138Z" fill="#eeeeee" stroke="#eeeeee"></path><path d="M602 0L517 0L523 49Z" fill="#e7e7e7" stroke="#e7e7e7"></path><path d="M523 49L517 0L434 93Z" fill="#d3d3d3" stroke="#d3d3d3"></path><path d="M51 294L184 381L191 257Z" fill="#cfcfcf" stroke="#cfcfcf"></path><path d="M133 480L99 600L187 600Z" fill="#cfcfcf" stroke="#cfcfcf"></path><path d="M51 294L191 257L55 230Z" fill="#cfcfcf" stroke="#cfcfcf"></path><path d="M55 230L191 257L164 180Z" fill="#dadada" stroke="#dadada"></path><path d="M645 124L602 0L523 49Z" fill="#e7e7e7" stroke="#e7e7e7"></path><path d="M79 68L55 230L164 180Z" fill="#e7e7e7" stroke="#e7e7e7"></path><path d="M691 289L810 238L651 215Z" fill="#cccccc" stroke="#cccccc"></path><path d="M645 124L712 49L602 0Z" fill="#dadada" stroke="#dadada"></path><path d="M828 279L691 289L713 415Z" fill="#d6d6d6" stroke="#d6d6d6"></path><path d="M368 0L251 0L338 88Z" fill="#e0e0e0" stroke="#e0e0e0"></path><path d="M0 125L0 234L55 230Z" fill="#d6d6d6" stroke="#d6d6d6"></path><path d="M849 448L828 279L713 415Z" fill="#cfcfcf" stroke="#cfcfcf"></path><path d="M761 600L792 544L743 481Z" fill="#cccccc" stroke="#cccccc"></path><path d="M743 481L849 448L713 415Z" fill="#eeeeee" stroke="#eeeeee"></path><path d="M251 0L230 0L172 138Z" fill="#e7e7e7" stroke="#e7e7e7"></path><path d="M677 600L761 600L743 481Z" fill="#e4e4e4" stroke="#e4e4e4"></path><path d="M0 491L99 600L133 480Z" fill="#cccccc" stroke="#cccccc"></path><path d="M781 65L712 49L645 124Z" fill="#ebebeb" stroke="#ebebeb"></path><path d="M792 544L849 448L743 481Z" fill="#e0e0e0" stroke="#e0e0e0"></path><path d="M900 384L849 448L900 480Z" fill="#ebebeb" stroke="#ebebeb"></path><path d="M0 285L0 422L49 395Z" fill="#d3d3d3" stroke="#d3d3d3"></path><path d="M49 395L0 491L133 480Z" fill="#cfcfcf" stroke="#cfcfcf"></path><path d="M0 285L49 395L51 294Z" fill="#ebebeb" stroke="#ebebeb"></path><path d="M0 234L0 285L55 230Z" fill="#d6d6d6" stroke="#d6d6d6"></path><path d="M55 230L0 285L51 294Z" fill="#dddddd" stroke="#dddddd"></path><path d="M750 0L702 0L712 49Z" fill="#cccccc" stroke="#cccccc"></path><path d="M712 49L702 0L602 0Z" fill="#cfcfcf" stroke="#cfcfcf"></path><path d="M79 68L164 180L172 138Z" fill="#e4e4e4" stroke="#e4e4e4"></path><path d="M0 422L0 491L49 395Z" fill="#e4e4e4" stroke="#e4e4e4"></path><path d="M114 0L79 68L172 138Z" fill="#dddddd" stroke="#dddddd"></path><path d="M900 157L781 65L810 238Z" fill="#dadada" stroke="#dadada"></path><path d="M810 238L781 65L645 124Z" fill="#d6d6d6" stroke="#d6d6d6"></path><path d="M900 384L900 348L828 279Z" fill="#dddddd" stroke="#dddddd"></path><path d="M828 279L900 157L810 238Z" fill="#e0e0e0" stroke="#e0e0e0"></path><path d="M900 480L849 448L792 544Z" fill="#dadada" stroke="#dadada"></path><path d="M849 448L900 384L828 279Z" fill="#ebebeb" stroke="#ebebeb"></path><path d="M230 0L114 0L172 138Z" fill="#dddddd" stroke="#dddddd"></path><path d="M781 65L750 0L712 49Z" fill="#cfcfcf" stroke="#cfcfcf"></path><path d="M900 600L900 480L792 544Z" fill="#d3d3d3" stroke="#d3d3d3"></path><path d="M79 68L0 125L55 230Z" fill="#e4e4e4" stroke="#e4e4e4"></path><path d="M0 0L0 125L79 68Z" fill="#ebebeb" stroke="#ebebeb"></path><path d="M0 491L0 600L99 600Z" fill="#cfcfcf" stroke="#cfcfcf"></path><path d="M900 348L900 157L828 279Z" fill="#dadada" stroke="#dadada"></path><path d="M781 65L900 0L750 0Z" fill="#d3d3d3" stroke="#d3d3d3"></path><path d="M761 600L900 600L792 544Z" fill="#d6d6d6" stroke="#d6d6d6"></path><path d="M900 157L900 102L781 65Z" fill="#cfcfcf" stroke="#cfcfcf"></path><path d="M114 0L0 0L79 68Z" fill="#ebebeb" stroke="#ebebeb"></path><path d="M900 102L900 0L781 65Z" fill="#cccccc" stroke="#cccccc"></path></g></svg>